<?xml version="1.0" encoding="UTF-8"?>
<svg version="1.1" xmlns="http://www.w3.org/2000/svg" width="157" height="157">
<path d="M0 0 C0 27.39 0 54.78 0 83 C0.66 83 1.32 83 2 83 C1.67 82.01 1.34 81.02 1 80 C0.90408247 77.50092317 0.86353475 75.03003087 0.87060547 72.53100586 C0.86797699 71.39399986 0.86797699 71.39399986 0.86529541 70.23402405 C0.8608928 67.72760735 0.86380901 65.22126117 0.8671875 62.71484375 C0.86651407 60.97514329 0.86554372 59.23544293 0.86428833 57.4957428 C0.86281357 53.84993595 0.86495907 50.20415361 0.86962891 46.55834961 C0.87533029 41.87842583 0.87204319 37.19855934 0.86605644 32.51863766 C0.86244846 28.92679917 0.86359044 25.33497434 0.86618423 21.74313545 C0.86685263 20.01710567 0.86602813 18.29107466 0.86370468 16.56504631 C0.86117384 14.15653049 0.86502469 11.74810842 0.87060547 9.33959961 C0.86858124 8.62214569 0.86655701 7.90469177 0.86447144 7.16549683 C0.8857346 2.22853079 0.8857346 2.22853079 2 0 C2.99 0 3.98 0 5 0 C5 27.39 5 54.78 5 83 C5.66 83 6.32 83 7 83 C7 55.61 7 28.22 7 0 C11.62 0 16.24 0 21 0 C21 27.39 21 54.78 21 83 C21.66 83 22.32 83 23 83 C23 55.61 23 28.22 23 0 C23.99 0 24.98 0 26 0 C26 27.39 26 54.78 26 83 C32.27 83 38.54 83 45 83 C45 94.88 45 106.76 45 119 C38.73 119 32.46 119 26 119 C26 127.91 26 136.82 26 146 C25.01 146 24.02 146 23 146 C23 137.09 23 128.18 23 119 C22.34 119 21.68 119 21 119 C21 127.91 21 136.82 21 146 C18.03 146 15.06 146 12 146 C12 137.09 12 128.18 12 119 C10.71573103 120.05950052 10.71573103 120.05950052 10.88647461 122.50024414 C10.89171143 123.58426514 10.89694824 124.66828613 10.90234375 125.78515625 C10.90556641 126.95498047 10.90878906 128.12480469 10.91210938 129.33007812 C10.92048828 130.56177734 10.92886719 131.79347656 10.9375 133.0625 C10.94201172 134.29806641 10.94652344 135.53363281 10.95117188 136.80664062 C10.96300392 139.87114117 10.97948827 142.93554721 11 146 C9.68 146 8.36 146 7 146 C7 137.09 7 128.18 7 119 C6.34 119 5.68 119 5 119 C5 127.91 5 136.82 5 146 C4.01 146 3.02 146 2 146 C0.69646462 143.39292925 0.90329089 141.50498219 0.9375 138.58984375 C0.94523437 137.51798828 0.95296875 136.44613281 0.9609375 135.34179688 C0.97382812 134.21837891 0.98671875 133.09496094 1 131.9375 C1.02538599 129.71749531 1.04646081 127.49743565 1.0625 125.27734375 C1.07410156 124.28984131 1.08570312 123.30233887 1.09765625 122.28491211 C1.25946067 120.03403803 1.25946067 120.03403803 0 119 C0 127.91 0 136.82 0 146 C-2.97 146 -5.94 146 -9 146 C-9 137.09 -9 128.18 -9 119 C-33.09 119 -57.18 119 -82 119 C-82 83 -82 83 -72 72 C-69.80340983 69.30133208 -67.60690199 66.60257002 -65.421875 63.89453125 C-61.69764926 59.4434808 -57.72977289 55.22836341 -53.7734375 50.984375 C-49.46894486 46.36646239 -45.35687595 41.59238393 -41.26171875 36.7890625 C-40.23716908 35.58837959 -39.21242354 34.38786379 -38.1875 33.1875 C-37.67018311 32.58131836 -37.15286621 31.97513672 -36.61987305 31.35058594 C-33.41497771 27.6092918 -30.14790722 23.93884617 -26.8125 20.3125 C-22.6873178 15.82196349 -18.81140321 11.17517118 -15.0078125 6.41015625 C-14.34523438 5.61480469 -13.68265625 4.81945312 -13 4 C-12.44054687 3.23558594 -11.88109375 2.47117187 -11.3046875 1.68359375 C-9 0 -9 0 0 0 Z M-10 43 C-11.277303 44.5191225 -12.5200149 46.06731814 -13.75 47.625 C-17.49570049 52.26537417 -21.40930577 56.66236097 -25.5 61 C-32.10053516 68.01342869 -38.21735249 75.28980332 -44 83 C-32.45 83 -20.9 83 -9 83 C-9 69.8 -9 56.6 -9 43 C-9.33 43 -9.66 43 -10 43 Z " fill="#287ABA" transform="translate(95,6)"/>
<path d="M0 0 C0 27.39 0 54.78 0 83 C-1.32 83 -2.64 83 -4 83 C-4.33 70.46 -4.66 57.92 -5 45 C-14.62388338 55.09674861 -14.62388338 55.09674861 -23.6875 65.6875 C-24.3489502 66.48937744 -25.01040039 67.29125488 -25.69189453 68.11743164 C-27.24960911 70.0628448 -28.73663945 72.0666987 -30.15283203 74.11743164 C-33.9051914 79.03430326 -36.98442384 83.01444628 -43.35961914 83.96948242 C-48.31931377 84.32380341 -53.23215259 84.05179076 -58.1875 83.75 C-59.91973532 83.68969195 -61.65217417 83.63495923 -63.38476562 83.5859375 C-67.59494365 83.45481054 -71.79518562 83.24852279 -76 83 C-71.82136292 76.58859697 -71.82136292 76.58859697 -69.30078125 73.95703125 C-68.57773804 73.19144897 -68.57773804 73.19144897 -67.84008789 72.41040039 C-67.33598389 71.88309326 -66.83187988 71.35578613 -66.3125 70.8125 C-62.5734727 66.83783638 -58.97102575 62.82946927 -55.5625 58.5625 C-51.53553256 53.54158052 -47.20785297 48.87578183 -42.79931641 44.19384766 C-38.75731413 39.87773122 -35.00404583 35.39496369 -31.30859375 30.77734375 C-28.16828574 26.99940975 -24.81710651 23.43886099 -21.45874023 19.85546875 C-17.40603243 15.50552335 -13.63554895 10.99742434 -9.9375 6.33984375 C-4.68781302 0 -4.68781302 0 0 0 Z " fill="#BF2636" transform="translate(90,6)"/>
<path d="M0 0 C0.74886475 0.00523682 1.49772949 0.01047363 2.26928711 0.01586914 C3.36188843 0.01961548 3.36188843 0.01961548 4.4765625 0.0234375 C5.40718506 0.0325415 6.33780762 0.04164551 7.29663086 0.05102539 C11.72069336 0.08196289 11.72069336 0.08196289 16.23413086 0.11352539 C16.23413086 11.33352539 16.23413086 22.55352539 16.23413086 34.11352539 C7.81913086 34.60852539 7.81913086 34.60852539 -0.76586914 35.11352539 C-1.09586914 44.02352539 -1.42586914 52.93352539 -1.76586914 62.11352539 C-2.75586914 62.11352539 -3.74586914 62.11352539 -4.76586914 62.11352539 C-4.79056235 57.87768969 -4.80872585 53.64189197 -4.82080078 49.40600586 C-4.82583388 47.96459219 -4.83266087 46.52318363 -4.84130859 45.08178711 C-4.85341897 43.01162454 -4.85910762 40.94152938 -4.86352539 38.87133789 C-4.86876221 37.62497559 -4.87399902 36.37861328 -4.87939453 35.09448242 C-4.76586914 32.11352539 -4.76586914 32.11352539 -3.76586914 30.11352539 C-3.10586914 30.11352539 -2.44586914 30.11352539 -1.76586914 30.11352539 C-1.76586914 29.45352539 -1.76586914 28.79352539 -1.76586914 28.11352539 C-4.07586914 29.43352539 -6.38586914 30.75352539 -8.76586914 32.11352539 C-8.10586914 32.77352539 -7.44586914 33.43352539 -6.76586914 34.11352539 C-9.52863091 33.59084073 -12.09195674 33.00482953 -14.76586914 32.11352539 C-14.76586914 30.13352539 -14.76586914 28.15352539 -14.76586914 26.11352539 C-12.78586914 27.10352539 -12.78586914 27.10352539 -10.76586914 28.11352539 C-10.76586914 28.77352539 -10.76586914 29.43352539 -10.76586914 30.11352539 C-10.10586914 30.11352539 -9.44586914 30.11352539 -8.76586914 30.11352539 C-8.76586914 29.12352539 -8.76586914 28.13352539 -8.76586914 27.11352539 C-9.42586914 26.78352539 -10.08586914 26.45352539 -10.76586914 26.11352539 C-8.78586914 26.11352539 -6.80586914 26.11352539 -4.76586914 26.11352539 C-4.43586914 25.45352539 -4.10586914 24.79352539 -3.76586914 24.11352539 C-3.10586914 24.11352539 -2.44586914 24.11352539 -1.76586914 24.11352539 C-1.76586914 23.45352539 -1.76586914 22.79352539 -1.76586914 22.11352539 C-2.75586914 22.11352539 -3.74586914 22.11352539 -4.76586914 22.11352539 C-4.76586914 23.10352539 -4.76586914 24.09352539 -4.76586914 25.11352539 C-5.75586914 25.11352539 -6.74586914 25.11352539 -7.76586914 25.11352539 C-7.76586914 23.79352539 -7.76586914 22.47352539 -7.76586914 21.11352539 C-6.77586914 21.11352539 -5.78586914 21.11352539 -4.76586914 21.11352539 C-4.97211914 20.37102539 -5.17836914 19.62852539 -5.39086914 18.86352539 C-5.80995665 15.79021698 -5.38535925 14.68565674 -3.76586914 12.11352539 C-3.10586914 12.11352539 -2.44586914 12.11352539 -1.76586914 12.11352539 C-1.76586914 11.45352539 -1.76586914 10.79352539 -1.76586914 10.11352539 C-2.75586914 10.11352539 -3.74586914 10.11352539 -4.76586914 10.11352539 C-5.09586914 8.46352539 -5.42586914 6.81352539 -5.76586914 5.11352539 C-4.44586914 5.44352539 -3.12586914 5.77352539 -1.76586914 6.11352539 C-2.04430664 4.90696289 -2.04430664 4.90696289 -2.32836914 3.67602539 C-2.47274414 2.83040039 -2.61711914 1.98477539 -2.76586914 1.11352539 C-1.76586914 0.11352539 -1.76586914 0.11352539 0 0 Z " fill="#1075BC" transform="translate(122.765869140625,89.886474609375)"/>
<path d="M0 0 C1.21236328 0.02707031 1.21236328 0.02707031 2.44921875 0.0546875 C3.37154297 0.08949219 3.37154297 0.08949219 4.3125 0.125 C4.3125 1.445 4.3125 2.765 4.3125 4.125 C3.3225 4.125 2.3325 4.125 1.3125 4.125 C1.3125 5.115 1.3125 6.105 1.3125 7.125 C0.6525 7.125 -0.0075 7.125 -0.6875 7.125 C-0.6875 9.105 -0.6875 11.085 -0.6875 13.125 C-0.0275 13.125 0.6325 13.125 1.3125 13.125 C1.3125 14.115 1.3125 15.105 1.3125 16.125 C2.3025 16.125 3.2925 16.125 4.3125 16.125 C4.3125 16.785 4.3125 17.445 4.3125 18.125 C5.3025 17.795 6.2925 17.465 7.3125 17.125 C7.9725 17.785 8.6325 18.445 9.3125 19.125 C10.075625 18.3 10.83875 17.475 11.625 16.625 C14.3125 14.125 14.3125 14.125 17.3125 14.125 C17.126875 14.74375 16.94125 15.3625 16.75 16 C16.07563824 18.16660178 16.07563824 18.16660178 17.3125 20.125 C15.6625 20.455 14.0125 20.785 12.3125 21.125 C12.3125 30.035 12.3125 38.945 12.3125 48.125 C9.3425 48.125 6.3725 48.125 3.3125 48.125 C3.3125 39.215 3.3125 30.305 3.3125 21.125 C2.02823103 22.18450052 2.02823103 22.18450052 2.19897461 24.62524414 C2.20421143 25.70926514 2.20944824 26.79328613 2.21484375 27.91015625 C2.21806641 29.07998047 2.22128906 30.24980469 2.22460938 31.45507812 C2.23298828 32.68677734 2.24136719 33.91847656 2.25 35.1875 C2.25451172 36.42306641 2.25902344 37.65863281 2.26367188 38.93164062 C2.27550392 41.99614117 2.29198827 45.06054721 2.3125 48.125 C0.9925 48.125 -0.3275 48.125 -1.6875 48.125 C-1.6875 39.215 -1.6875 30.305 -1.6875 21.125 C-2.3475 21.125 -3.0075 21.125 -3.6875 21.125 C-3.6875 30.035 -3.6875 38.945 -3.6875 48.125 C-4.6775 48.125 -5.6675 48.125 -6.6875 48.125 C-7.98111994 45.53776011 -7.81698949 43.64386997 -7.8203125 40.75 C-7.82160156 39.68265625 -7.82289062 38.6153125 -7.82421875 37.515625 C-7.82035156 36.39671875 -7.81648438 35.2778125 -7.8125 34.125 C-7.81636719 33.00609375 -7.82023437 31.8871875 -7.82421875 30.734375 C-7.82292969 29.66703125 -7.82164063 28.5996875 -7.8203125 27.5 C-7.81918457 26.51773438 -7.81805664 25.53546875 -7.81689453 24.5234375 C-7.6875 22.125 -7.6875 22.125 -6.6875 20.125 C-5.6975 20.125 -4.7075 20.125 -3.6875 20.125 C-2.93823929 16.46194766 -2.4494986 13.70144848 -3.6875 10.125 C-3.0275 10.125 -2.3675 10.125 -1.6875 10.125 C-1.6875 9.465 -1.6875 8.805 -1.6875 8.125 C-2.6775 8.125 -3.6675 8.125 -4.6875 8.125 C-4.6875 9.115 -4.6875 10.105 -4.6875 11.125 C-5.6775 11.125 -6.6675 11.125 -7.6875 11.125 C-8.0175 11.785 -8.3475 12.445 -8.6875 13.125 C-8.6875 12.135 -8.6875 11.145 -8.6875 10.125 C-8.0275 10.125 -7.3675 10.125 -6.6875 10.125 C-6.6875 9.135 -6.6875 8.145 -6.6875 7.125 C-5.3125 5.4375 -5.3125 5.4375 -3.6875 4.125 C-3.0275 4.125 -2.3675 4.125 -1.6875 4.125 C-1.6875 3.465 -1.6875 2.805 -1.6875 2.125 C-3.6675 2.125 -5.6475 2.125 -7.6875 2.125 C-4.48369983 -0.01086678 -3.66810033 -0.10632175 0 0 Z " fill="#8E6483" transform="translate(103.6875,103.875)"/>
<path d="M0 0 C1.32 0 2.64 0 4 0 C4 27.39 4 54.78 4 83 C2.68 83 1.36 83 0 83 C0 55.61 0 28.22 0 0 Z " fill="#BE3748" transform="translate(107,6)"/>
<path d="M0 0 C1.32 0 2.64 0 4 0 C4 27.39 4 54.78 4 83 C2.68 83 1.36 83 0 83 C0 55.61 0 28.22 0 0 Z " fill="#BE4150" transform="translate(112,6)"/>
<path d="M0 0 C1.32 0 2.64 0 4 0 C4 27.39 4 54.78 4 83 C2.68 83 1.36 83 0 83 C0 55.61 0 28.22 0 0 Z " fill="#B43B48" transform="translate(91,6)"/>
<path d="M0 0 C0.3403125 0.9590625 0.3403125 0.9590625 0.6875 1.9375 C1.85250896 4.27193661 1.85250896 4.27193661 4.625 4.75 C5.40875 4.8325 6.1925 4.915 7 5 C7.33 4.34 7.66 3.68 8 3 C12.455 3.99 12.455 3.99 17 5 C17 5.66 17 6.32 17 7 C16.01 7.33 15.02 7.66 14 8 C13.26676204 10.01508358 13.26676204 10.01508358 13 12 C11 12 11 12 9.375 10.5 C8.92125 10.005 8.4675 9.51 8 9 C8.66 10.98 9.32 12.96 10 15 C7.525 14.505 7.525 14.505 5 14 C5.33 15.65 5.66 17.3 6 19 C3.03 18.34 0.06 17.68 -3 17 C-3.33 17.99 -3.66 18.98 -4 20 C-7.96 20 -11.92 20 -16 20 C-15.67 20.99 -15.34 21.98 -15 23 C-16.32 22.67 -17.64 22.34 -19 22 C-18.45472656 21.40574219 -17.90945312 20.81148437 -17.34765625 20.19921875 C-12.29797911 14.64888986 -7.46446065 8.98812577 -2.75 3.15234375 C-1 1 -1 1 0 0 Z " fill="#BF2939" transform="translate(33,66)"/>
<path d="M0 0 C0.99 0 1.98 0 3 0 C3 27.39 3 54.78 3 83 C2.01 83 1.02 83 0 83 C0 55.61 0 28.22 0 0 Z " fill="#C22937" transform="translate(118,6)"/>
<path d="M0 0 C0.99 0 1.98 0 3 0 C3 27.39 3 54.78 3 83 C2.01 83 1.02 83 0 83 C0 55.61 0 28.22 0 0 Z " fill="#C22A34" transform="translate(102,6)"/>
<path d="M0 0 C4.62 0 9.24 0 14 0 C14 1.32 14 2.64 14 4 C10.7 4 7.4 4 4 4 C4 5.32 4 6.64 4 8 C6.97 8 9.94 8 13 8 C13 9.32 13 10.64 13 12 C10.03 12 7.06 12 4 12 C4 13.32 4 14.64 4 16 C7.3 16 10.6 16 14 16 C14 16.99 14 17.98 14 19 C9.38 19 4.76 19 0 19 C0 12.73 0 6.46 0 0 Z " fill="#DAE1E7" transform="translate(65,97)"/>
<path d="M0 0 C4.95 0 9.9 0 15 0 C15 1.32 15 2.64 15 4 C11.37 4 7.74 4 4 4 C4 5.32 4 6.64 4 8 C7.3 8 10.6 8 14 8 C14 9.32 14 10.64 14 12 C11.03 12 8.06 12 5 12 C5 14.64 5 17.28 5 20 C3.35 20 1.7 20 0 20 C0 13.4 0 6.8 0 0 Z " fill="#CFD9E4" transform="translate(47,97)"/>
<path d="M0 0 C0.99 0 1.98 0 3 0 C3 27.39 3 54.78 3 83 C2.34 83 1.68 83 1 83 C0.67 55.61 0.34 28.22 0 0 Z " fill="#BA2332" transform="translate(97,6)"/>
<path d="M0 0 C1.65 0 3.3 0 5 0 C5 4.95 5 9.9 5 15 C7.97 15 10.94 15 14 15 C14 16.32 14 17.64 14 19 C9.38 19 4.76 19 0 19 C0 12.73 0 6.46 0 0 Z " fill="#BFD2E1" transform="translate(21,97)"/>
<path d="M0 0 C5.875 0.875 5.875 0.875 7 2 C8.80811184 2.20896317 10.62216032 2.36780361 12.4375 2.5 C17.78015267 2.89007634 17.78015267 2.89007634 20 4 C20 4.66 20 5.32 20 6 C9.44 6 -1.12 6 -12 6 C-12.33 5.01 -12.66 4.02 -13 3 C-12.14535156 2.95101562 -11.29070313 2.90203125 -10.41015625 2.8515625 C-9.30542969 2.77679688 -8.20070313 2.70203125 -7.0625 2.625 C-5.40927734 2.52058594 -5.40927734 2.52058594 -3.72265625 2.4140625 C-2.37494141 2.20910156 -2.37494141 2.20910156 -1 2 C-0.67 1.34 -0.34 0.68 0 0 Z " fill="#C21D2E" transform="translate(30,83)"/>
<path d="M0 0 C1.32 0.33 2.64 0.66 4 1 C4 9.91 4 18.82 4 28 C2.68 28 1.36 28 0 28 C0 18.76 0 9.52 0 0 Z " fill="#BB384A" transform="translate(107,124)"/>
<path d="M0 0 C0.99 0 1.98 0 3 0 C3 9.24 3 18.48 3 28 C1.68 28 0.36 28 -1 28 C-1.02886338 23.52084672 -1.04675187 19.04171709 -1.0625 14.5625 C-1.07087891 13.28310547 -1.07925781 12.00371094 -1.08789062 10.68554688 C-1.09111328 9.47060547 -1.09433594 8.25566406 -1.09765625 7.00390625 C-1.10289307 5.87799072 -1.10812988 4.7520752 -1.11352539 3.59204102 C-1 1 -1 1 0 0 Z " fill="#B23C4A" transform="translate(92,124)"/>
<path d="M0 0 C0.99 0.33 1.98 0.66 3 1 C3 9.91 3 18.82 3 28 C1.68 28 0.36 28 -1 28 C-1.02886338 23.52084672 -1.04675187 19.04171709 -1.0625 14.5625 C-1.07087891 13.28310547 -1.07925781 12.00371094 -1.08789062 10.68554688 C-1.09111328 9.47060547 -1.09433594 8.25566406 -1.09765625 7.00390625 C-1.10289307 5.87799072 -1.10812988 4.7520752 -1.11352539 3.59204102 C-1 1 -1 1 0 0 Z " fill="#C2374C" transform="translate(87,124)"/>
<path d="M0 0 C1.32 0 2.64 0 4 0 C4 8.91 4 17.82 4 27 C2.68 27 1.36 27 0 27 C0 18.09 0 9.18 0 0 Z " fill="#BE4150" transform="translate(112,125)"/>
<path d="M0 0 C1.32 0.33 2.64 0.66 4 1 C4 9.58 4 18.16 4 27 C2.68 27 1.36 27 0 27 C0 18.09 0 9.18 0 0 Z " fill="#CB4253" transform="translate(102,125)"/>
<path d="M0 0 C1.32 0.33 2.64 0.66 4 1 C4 1.66 4 2.32 4 3 C3.01 3 2.02 3 1 3 C1 4.32 1 5.64 1 7 C1.99 7 2.98 7 4 7 C4 6.01 4 5.02 4 4 C4.99 4 5.98 4 7 4 C6.67 5.32 6.34 6.64 6 8 C4.02 8.33 2.04 8.66 0 9 C0 9.99 0 10.98 0 12 C-2.475 11.01 -2.475 11.01 -5 10 C-5.33 10.66 -5.66 11.32 -6 12 C-6.99 12 -7.98 12 -9 12 C-9 11.01 -9 10.02 -9 9 C-9.66 9 -10.32 9 -11 9 C-11 7.02 -11 5.04 -11 3 C-10.01 3.495 -10.01 3.495 -9 4 C-8.67 4.99 -8.34 5.98 -8 7 C-8 6.01 -8 5.02 -8 4 C-6.625 2.3125 -6.625 2.3125 -5 1 C-4.34 1 -3.68 1 -3 1 C-3 1.66 -3 2.32 -3 3 C-2.34 3 -1.68 3 -1 3 C-0.67 2.01 -0.34 1.02 0 0 Z " fill="#468FC6" transform="translate(114,108)"/>
<path d="M0 0 C1.65 0 3.3 0 5 0 C5 6.6 5 13.2 5 20 C3.35 20 1.7 20 0 20 C0 13.4 0 6.8 0 0 Z " fill="#C2D2E1" transform="translate(38,97)"/>
<path d="M0 0 C0.33 0 0.66 0 1 0 C1 1.65 1 3.3 1 5 C1.598125 4.484375 2.19625 3.96875 2.8125 3.4375 C3.534375 2.963125 4.25625 2.48875 5 2 C5.99 2.33 6.98 2.66 8 3 C7.67 3.66 7.34 4.32 7 5 C8.98 3.35 10.96 1.7 13 0 C13.99 0.66 14.98 1.32 16 2 C15.01 2 14.02 2 13 2 C13 2.99 13 3.98 13 5 C12.01 5 11.02 5 10 5 C10 5.99 10 6.98 10 8 C8.68 7.67 7.36 7.34 6 7 C6 6.34 6 5.68 6 5 C5.34 5 4.68 5 4 5 C4 5.99 4 6.98 4 8 C4.99 8 5.98 8 7 8 C7 8.99 7 9.98 7 11 C7.99 11 8.98 11 10 11 C10 11.99 10 12.98 10 14 C9.01 14 8.02 14 7 14 C6.67 14.99 6.34 15.98 6 17 C5.34 16.67 4.68 16.34 4 16 C4 15.34 4 14.68 4 14 C4.66 14 5.32 14 6 14 C6 13.01 6 12.02 6 11 C5.01 10.67 4.02 10.34 3 10 C3 9.34 3 8.68 3 8 C2.34 8 1.68 8 1 8 C0.67 8.99 0.34 9.98 0 11 C-1.0013988 7.99580359 -1.51421457 5.12290635 -2 2 C-1.34 2 -0.68 2 0 2 C0 1.34 0 0.68 0 0 Z " fill="#0D73BB" transform="translate(89,95)"/>
<path d="M0 0 C0.99 0 1.98 0 3 0 C2.67 1.32 2.34 2.64 2 4 C0.68 4.33 -0.64 4.66 -2 5 C-2 5.99 -2 6.98 -2 8 C-2.33 8.33 -2.66 8.66 -3 9 C-2.01 9 -1.02 9 0 9 C0 8.01 0 7.02 0 6 C0.99 6 1.98 6 3 6 C3 6.66 3 7.32 3 8 C2.34 8 1.68 8 1 8 C1.66 9.98 2.32 11.96 3 14 C2.443125 13.814375 1.88625 13.62875 1.3125 13.4375 C-1.399133 12.92448835 -3.34371039 13.3359276 -6 14 C-6.33 13.01 -6.66 12.02 -7 11 C-7.66 11 -8.32 11 -9 11 C-9 8.36 -9 5.72 -9 3 C-8.34 3 -7.68 3 -7 3 C-7 4.32 -7 5.64 -7 7 C-5.68 6.67 -4.36 6.34 -3 6 C-3 5.01 -3 4.02 -3 3 C-2.01 3 -1.02 3 0 3 C0 2.01 0 1.02 0 0 Z " fill="#4B92C7" transform="translate(99,106)"/>
<path d="M0 0 C0.99 0 1.98 0 3 0 C3 8.91 3 17.82 3 27 C2.01 27 1.02 27 0 27 C0 18.09 0 9.18 0 0 Z " fill="#C22938" transform="translate(118,125)"/>
<path d="M0 0 C3.36720387 1.39332574 4.9859524 2.9789286 7 6 C4 6 4 6 2 5 C2 5.66 2 6.32 2 7 C2.66 7 3.32 7 4 7 C4 7.66 4 8.32 4 9 C2.35 9 0.7 9 -1 9 C-1 9.66 -1 10.32 -1 11 C-0.34 11 0.32 11 1 11 C1 11.66 1 12.32 1 13 C-1.49361571 11.79618552 -3.68143083 10.54571278 -6 9 C-5.42655063 6.13275314 -5.1385485 5.1385485 -3 3 C-2.01 3 -1.02 3 0 3 C0 2.01 0 1.02 0 0 Z " fill="#CB666F" transform="translate(58,51)"/>
<path d="M0 0 C1.32 0 2.64 0 4 0 C4 5.94 4 11.88 4 18 C2.68 18 1.36 18 0 18 C0 12.06 0 6.12 0 0 Z " fill="#0C72BB" transform="translate(43,98)"/>
<path d="M0 0 C1.9375 0.75 1.9375 0.75 3.9375 2.75 C3.38194444 7.30555556 3.38194444 7.30555556 1.9375 8.75 C-1.0625 8.875 -1.0625 8.875 -4.0625 8.75 C-5.0625 7.75 -5.0625 7.75 -5.3125 4.8125 C-5.23 3.801875 -5.1475 2.79125 -5.0625 1.75 C-2.0625 -0.25 -2.0625 -0.25 0 0 Z " fill="#E3CCCD" transform="translate(67.0625,44.25)"/>
<path d="M0 0 C0.99 0 1.98 0 3 0 C3 0.99 3 1.98 3 3 C3.99 3 4.98 3 6 3 C6 3.99 6 4.98 6 6 C6.99 6 7.98 6 9 6 C9 6.66 9 7.32 9 8 C8.34 8 7.68 8 7 8 C6.67 9.32 6.34 10.64 6 12 C5.01 11.67 4.02 11.34 3 11 C3 10.34 3 9.68 3 9 C2.01 9 1.02 9 0 9 C0 8.01 0 7.02 0 6 C0.99 6 1.98 6 3 6 C1 6 -1 6 -3 6 C-3 5.01 -3 4.02 -3 3 C-2.01 3 -1.02 3 0 3 C0 2.01 0 1.02 0 0 Z " fill="#478FC5" transform="translate(112,94)"/>
<path d="M0 0 C0.99 0 1.98 0 3 0 C3 2.64 3 5.28 3 8 C2.01 8 1.02 8 0 8 C0 7.34 0 6.68 0 6 C-0.99 6.99 -1.98 7.98 -3 9 C-2.01 9 -1.02 9 0 9 C0 9.66 0 10.32 0 11 C-2.97 11 -5.94 11 -9 11 C-9 10.34 -9 9.68 -9 9 C-9.99 9 -10.98 9 -12 9 C-12 8.01 -12 7.02 -12 6 C-11.34 6 -10.68 6 -10 6 C-10 6.66 -10 7.32 -10 8 C-8.68 8.33 -7.36 8.66 -6 9 C-6 8.01 -6 7.02 -6 6 C-5.01 6 -4.02 6 -3 6 C-3 5.01 -3 4.02 -3 3 C-2.01 3 -1.02 3 0 3 C0 2.01 0 1.02 0 0 Z " fill="#5798C8" transform="translate(105,94)"/>
<path d="M0 0 C2.79872437 2.52788007 4.45773019 4.20411134 5 8 C3.35 7.67 1.7 7.34 0 7 C0.33 8.65 0.66 10.3 1 12 C-2.34373475 11.44271087 -5.03312999 10.64826111 -8 9 C-6.68 8.67 -5.36 8.34 -4 8 C-4 7.34 -4 6.68 -4 6 C-4 5.34 -4 4.68 -4 4 C-2.35 4.33 -0.7 4.66 1 5 C0.67 3.35 0.34 1.7 0 0 Z " fill="#E5D8D7" transform="translate(38,73)"/>
<path d="M0 0 C2.0625 0.4375 2.0625 0.4375 4 1 C4 1.99 4 2.98 4 4 C4.99 4 5.98 4 7 4 C7 4.66 7 5.32 7 6 C5.68 6.33 4.36 6.66 3 7 C3.33 7.66 3.66 8.32 4 9 C0.73045798 8.43628586 -0.82575883 7.50037734 -3 5 C-1.125 1.125 -1.125 1.125 0 0 Z " fill="#DBAEB1" transform="translate(49,61)"/>
<path d="M0 0 C2.6875 0.3125 2.6875 0.3125 5 1 C5 1.99 5 2.98 5 4 C5.99 4.33 6.98 4.66 8 5 C6.35 5 4.7 5 3 5 C3.33 6.32 3.66 7.64 4 9 C0.63279613 7.60667426 -0.9859524 6.0210714 -3 3 C-1.8125 1.4375 -1.8125 1.4375 0 0 Z " fill="#E6DFDE" transform="translate(70,38)"/>
<path d="M0 0 C4.29 0 8.58 0 13 0 C13 0.99 13 1.98 13 3 C12.30132812 3.02578125 11.60265625 3.0515625 10.8828125 3.078125 C9.97273438 3.13484375 9.06265625 3.1915625 8.125 3.25 C7.22007813 3.29640625 6.31515625 3.3428125 5.3828125 3.390625 C2.82889456 3.75611148 2.82889456 3.75611148 1.6796875 6.046875 C1.45539063 6.69140625 1.23109375 7.3359375 1 8 C0.67 5.36 0.34 2.72 0 0 Z " fill="#EBEBEC" transform="translate(66,98)"/>
<path d="M0 0 C1.21236328 0.02707031 1.21236328 0.02707031 2.44921875 0.0546875 C3.37154297 0.08949219 3.37154297 0.08949219 4.3125 0.125 C4.3125 1.445 4.3125 2.765 4.3125 4.125 C3.3225 4.125 2.3325 4.125 1.3125 4.125 C1.3125 5.115 1.3125 6.105 1.3125 7.125 C0.3225 7.125 -0.6675 7.125 -1.6875 7.125 C-1.6875 6.465 -1.6875 5.805 -1.6875 5.125 C-2.3475 4.795 -3.0075 4.465 -3.6875 4.125 C-3.0275 4.125 -2.3675 4.125 -1.6875 4.125 C-1.6875 3.465 -1.6875 2.805 -1.6875 2.125 C-3.6675 2.125 -5.6475 2.125 -7.6875 2.125 C-4.48369983 -0.01086678 -3.66810033 -0.10632175 0 0 Z " fill="#2D82C0" transform="translate(103.6875,103.875)"/>
<path d="M0 0 C0.33 0 0.66 0 1 0 C1 4.62 1 9.24 1 14 C4.63 14 8.26 14 12 14 C12 14.99 12 15.98 12 17 C8.04 16.67 4.08 16.34 0 16 C0 10.72 0 5.44 0 0 Z " fill="#E6E8E9" transform="translate(23,99)"/>
<path d="M0 0 C4.455 0.99 4.455 0.99 9 2 C9 2.66 9 3.32 9 4 C8.01 4.33 7.02 4.66 6 5 C5.26676204 7.01508358 5.26676204 7.01508358 5 9 C4.34 9 3.68 9 3 9 C2.01 6.03 1.02 3.06 0 0 Z " fill="#E5D7D7" transform="translate(41,69)"/>
<path d="M0 0 C0.66 0 1.32 0 2 0 C2 0.99 2 1.98 2 3 C3.65 3.33 5.3 3.66 7 4 C6.67 5.32 6.34 6.64 6 8 C4.68 8.33 3.36 8.66 2 9 C2 7 2 7 3 6 C1.35 6 -0.3 6 -2 6 C-1.125 1.125 -1.125 1.125 0 0 Z " fill="#E1C5C7" transform="translate(76,31)"/>
<path d="M0 0 C2 2 2 2 2.125 5.125 C2.08375 6.07375 2.0425 7.0225 2 8 C2.66 8 3.32 8 4 8 C3.67 8.99 3.34 9.98 3 11 C2.34 11 1.68 11 1 11 C-1 8 -1 8 -1 5 C-0.34 5 0.32 5 1 5 C1 4.34 1 3.68 1 3 C0.01 3 -0.98 3 -2 3 C-2 3.99 -2 4.98 -2 6 C-2.99 6 -3.98 6 -5 6 C-5.33 6.66 -5.66 7.32 -6 8 C-6 7.01 -6 6.02 -6 5 C-5.34 5 -4.68 5 -4 5 C-4 4.01 -4 3.02 -4 2 C-2.68 1.34 -1.36 0.68 0 0 Z " fill="#0F74BC" transform="translate(101,109)"/>
<path d="M0 0 C0.99 0 1.98 0 3 0 C3 2.64 3 5.28 3 8 C2.01 8 1.02 8 0 8 C0 7.34 0 6.68 0 6 C-0.99 6.33 -1.98 6.66 -3 7 C-3 5.68 -3 4.36 -3 3 C-2.01 3 -1.02 3 0 3 C0 2.01 0 1.02 0 0 Z " fill="#458FC5" transform="translate(105,94)"/>
<path d="M0 0 C2.0625 0.4375 2.0625 0.4375 4 1 C3.01 1 2.02 1 1 1 C1.33 1.99 1.66 2.98 2 4 C2.66 4 3.32 4 4 4 C4.33 3.34 4.66 2.68 5 2 C5 2.66 5 3.32 5 4 C5.99 4.33 6.98 4.66 8 5 C6.35 5 4.7 5 3 5 C3 5.66 3 6.32 3 7 C3.66 7 4.32 7 5 7 C5 7.66 5 8.32 5 9 C2.50638429 7.79618552 0.31856917 6.54571278 -2 5 C-1.125 1.125 -1.125 1.125 0 0 Z " fill="#E6DFDF" transform="translate(54,55)"/>
<path d="M0 0 C-0.185625 0.61875 -0.37125 1.2375 -0.5625 1.875 C-1.23686176 4.04160178 -1.23686176 4.04160178 0 6 C-1.65 6.33 -3.3 6.66 -5 7 C-5 6.34 -5 5.68 -5 5 C-5.99 4.67 -6.98 4.34 -8 4 C-3.375 0 -3.375 0 0 0 Z " fill="#2280C2" transform="translate(121,118)"/>
<path d="M0 0 C1.1446875 1.175625 1.1446875 1.175625 2.3125 2.375 C4.90891805 5.07257717 4.90891805 5.07257717 8 7 C7.34 7 6.68 7 6 7 C5.67 7.66 5.34 8.32 5 9 C5 8.34 5 7.68 5 7 C2.03 6.505 2.03 6.505 -1 6 C-0.67 4.02 -0.34 2.04 0 0 Z " fill="#C13442" transform="translate(45,64)"/>
<path d="M0 0 C-0.99 0.33 -1.98 0.66 -3 1 C-3 1.66 -3 2.32 -3 3 C-2.34 3.33 -1.68 3.66 -1 4 C-1.66 4.66 -2.32 5.32 -3 6 C-3.99 5.67 -4.98 5.34 -6 5 C-6.33 4.01 -6.66 3.02 -7 2 C-7.99 1.34 -8.98 0.68 -10 0 C-2.25 -1.125 -2.25 -1.125 0 0 Z " fill="#C34350" transform="translate(81,37)"/>
<path d="M0 0 C0.33 0 0.66 0 1 0 C1 8.25 1 16.5 1 25 C0.67 25 0.34 25 0 25 C0 16.75 0 8.5 0 0 Z " fill="#A92038" transform="translate(84,126)"/>
<path d="M0 0 C1.625 1.375 1.625 1.375 3 3 C3 3.66 3 4.32 3 5 C0.36 5 -2.28 5 -5 5 C-5 3 -5 3 -3.625 1.375 C-2 0 -2 0 0 0 Z " fill="#5296CA" transform="translate(92,103)"/>
<path d="M0 0 C0.99 0 1.98 0 3 0 C3 0.66 3 1.32 3 2 C2.34 2 1.68 2 1 2 C1.66 3.98 2.32 5.96 3 8 C2.01 8 1.02 8 0 8 C0 7.34 0 6.68 0 6 C-0.66 6 -1.32 6 -2 6 C-2 5.01 -2 4.02 -2 3 C-1.34 3 -0.68 3 0 3 C0 2.01 0 1.02 0 0 Z " fill="#5698CA" transform="translate(99,112)"/>
<path d="M0 0 C4.31392226 0.4793247 6.16569547 1.7457985 9 5 C6 6 6 6 3 5 C2.67 4.01 2.34 3.02 2 2 C1.34 1.34 0.68 0.68 0 0 Z " fill="#C13B48" transform="translate(50,60)"/>
<path d="M0 0 C2.0625 0.4375 2.0625 0.4375 4 1 C3.01 2.485 3.01 2.485 2 4 C2 3.34 2 2.68 2 2 C1.34 2.66 0.68 3.32 0 4 C0 4.99 0 5.98 0 7 C-0.99 6.34 -1.98 5.68 -3 5 C-1.125 1.125 -1.125 1.125 0 0 Z " fill="#E4D9D9" transform="translate(49,61)"/>
<path d="M0 0 C0.66 0 1.32 0 2 0 C2.33 2.64 2.66 5.28 3 8 C1.68 7.34 0.36 6.68 -1 6 C-1.042721 4.33388095 -1.04063832 2.66617115 -1 1 C-0.67 0.67 -0.34 0.34 0 0 Z " fill="#D69A9D" transform="translate(71,39)"/>
<path d="M0 0 C1.32 0.66 2.64 1.32 4 2 C3.67 2.99 3.34 3.98 3 5 C1.68 5 0.36 5 -1 5 C-0.67 3.35 -0.34 1.7 0 0 Z " fill="#BF2A39" transform="translate(65,46)"/>
<path d="M0 0 C0.625 1.8125 0.625 1.8125 1 4 C0.01 5.485 0.01 5.485 -1 7 C-2.32 6.67 -3.64 6.34 -5 6 C-3.35 4.02 -1.7 2.04 0 0 Z " fill="#C3394B" transform="translate(47,50)"/>
<path d="M0 0 C0.99 0 1.98 0 3 0 C3 2.31 3 4.62 3 7 C2.34 7 1.68 7 1 7 C0.67 4.69 0.34 2.38 0 0 Z " fill="#DBB2B5" transform="translate(43,71)"/>
<path d="M0 0 C3.36720387 1.39332574 4.9859524 2.9789286 7 6 C4 6 4 6 1.8125 4.125 C0 2 0 2 0 0 Z " fill="#E4D0D1" transform="translate(58,51)"/>
<path d="" fill="#A92038" transform="translate(0,0)"/>
<path d="" fill="#A92038" transform="translate(0,0)"/>
<path d="" fill="#A92038" transform="translate(0,0)"/>
<path d="" fill="#A92038" transform="translate(0,0)"/>
<path d="" fill="#A92038" transform="translate(0,0)"/>
<path d="" fill="#A92038" transform="translate(0,0)"/>
<path d="" fill="#A92038" transform="translate(0,0)"/>
<path d="" fill="#A92038" transform="translate(0,0)"/>
<path d="" fill="#A92038" transform="translate(0,0)"/>
<path d="" fill="#A92038" transform="translate(0,0)"/>
<path d="" fill="#A92038" transform="translate(0,0)"/>
<path d="" fill="#A92038" transform="translate(0,0)"/>
<path d="" fill="#A92038" transform="translate(0,0)"/>
<path d="" fill="#A92038" transform="translate(0,0)"/>
<path d="" fill="#A92038" transform="translate(0,0)"/>
<path d="" fill="#A92038" transform="translate(0,0)"/>
<path d="" fill="#A92038" transform="translate(0,0)"/>
<path d="" fill="#A92038" transform="translate(0,0)"/>
<path d="" fill="#A92038" transform="translate(0,0)"/>
<path d="" fill="#A92038" transform="translate(0,0)"/>
<path d="" fill="#A92038" transform="translate(0,0)"/>
<path d="" fill="#A92038" transform="translate(0,0)"/>
<path d="" fill="#A92038" transform="translate(0,0)"/>
<path d="" fill="#A92038" transform="translate(0,0)"/>
<path d="" fill="#A92038" transform="translate(0,0)"/>
<path d="" fill="#A92038" transform="translate(0,0)"/>
<path d="" fill="#A92038" transform="translate(0,0)"/>
<path d="" fill="#A92038" transform="translate(0,0)"/>
<path d="" fill="#A92038" transform="translate(0,0)"/>
<path d="" fill="#A92038" transform="translate(0,0)"/>
<path d="" fill="#A92038" transform="translate(0,0)"/>
<path d="" fill="#A92038" transform="translate(0,0)"/>
<path d="" fill="#A92038" transform="translate(0,0)"/>
<path d="" fill="#A92038" transform="translate(0,0)"/>
<path d="" fill="#A92038" transform="translate(0,0)"/>
<path d="" fill="#A92038" transform="translate(0,0)"/>
<path d="" fill="#A92038" transform="translate(0,0)"/>
<path d="" fill="#A92038" transform="translate(0,0)"/>
<path d="" fill="#A92038" transform="translate(0,0)"/>
<path d="" fill="#A92038" transform="translate(0,0)"/>
<path d="" fill="#A92038" transform="translate(0,0)"/>
<path d="" fill="#A92038" transform="translate(0,0)"/>
<path d="" fill="#A92038" transform="translate(0,0)"/>
<path d="" fill="#A92038" transform="translate(0,0)"/>
<path d="" fill="#A92038" transform="translate(0,0)"/>
<path d="" fill="#A92038" transform="translate(0,0)"/>
<path d="" fill="#A92038" transform="translate(0,0)"/>
<path d="" fill="#A92038" transform="translate(0,0)"/>
<path d="" fill="#A92038" transform="translate(0,0)"/>
<path d="" fill="#A92038" transform="translate(0,0)"/>
<path d="" fill="#A92038" transform="translate(0,0)"/>
<path d="" fill="#A92038" transform="translate(0,0)"/>
<path d="" fill="#A92038" transform="translate(0,0)"/>
<path d="" fill="#A92038" transform="translate(0,0)"/>
<path d="" fill="#A92038" transform="translate(0,0)"/>
<path d="" fill="#A92038" transform="translate(0,0)"/>
<path d="" fill="#A92038" transform="translate(0,0)"/>
<path d="" fill="#A92038" transform="translate(0,0)"/>
<path d="" fill="#A92038" transform="translate(0,0)"/>
<path d="" fill="#A92038" transform="translate(0,0)"/>
<path d="" fill="#A92038" transform="translate(0,0)"/>
<path d="" fill="#A92038" transform="translate(0,0)"/>
<path d="" fill="#A92038" transform="translate(0,0)"/>
<path d="" fill="#A92038" transform="translate(0,0)"/>
<path d="" fill="#A92038" transform="translate(0,0)"/>
<path d="" fill="#A92038" transform="translate(0,0)"/>
<path d="" fill="#A92038" transform="translate(0,0)"/>
<path d="" fill="#A92038" transform="translate(0,0)"/>
<path d="" fill="#A92038" transform="translate(0,0)"/>
<path d="" fill="#A92038" transform="translate(0,0)"/>
<path d="" fill="#A92038" transform="translate(0,0)"/>
<path d="" fill="#A92038" transform="translate(0,0)"/>
<path d="" fill="#A92038" transform="translate(0,0)"/>
<path d="" fill="#A92038" transform="translate(0,0)"/>
<path d="" fill="#A92038" transform="translate(0,0)"/>
<path d="" fill="#A92038" transform="translate(0,0)"/>
</svg>
